<svg xmlns="http://www.w3.org/2000/svg" xmlns:xlink="http://www.w3.org/1999/xlink" fill="#876c52" version="1.1" x="0px" y="0px" viewBox="0 0 100 125" enable-background="new 0 0 0 100" xml:space="preserve"><path d="M92.685,47.014c0,0.009,0,0.023-0.009,0.046h-0.037c-0.102,0.732-0.611,1.413-1.112,1.895  c-1.501,1.557-3.642,2.498-5.579,3.281c-2.048,0.815-4.18,1.557-6.348,1.867c-2.243,0.319-3.994-0.111-5.802-1.46  c-2.4-2.02-5.06-2.414-7.933-1.487c-3.457,1.107-6.636,3.244-9.499,5.356c-1.575,1.159-3.03,2.493-4.318,4.004  c-0.82,0.954-1.664,2.066-1.881,3.346c-0.06,0.333-0.111,0.843-0.125,1.39c-0.065,0.223-0.134,0.454-0.218,0.686  c-0.663,1.928-2.79,2.947-3.601,4.829c-0.157,0.361,0.246,0.824,0.663,0.787c2.178-0.167,4.156-1.065,6.278-1.371  c2.201,0.389,4.88-1.261,6.437-2.604c1.937-1.854,3.373-4.513,5.922-5.579c0.009,0,0.009,0,0.019-0.019  c0.194-0.083,0.38-0.139,0.584-0.194c0.009,0,0.037-0.009,0.064-0.027c0.074-0.019,0.186-0.037,0.269-0.047  c0.695-0.148,1.372-0.046,2.039,0.139c0.937,0.325,4.504,2.012,3.717,3.661c-0.065,0.13-0.13,0.25-0.251,0.343  c-0.074,0.074-0.147,0.139-0.24,0.204c-0.371,0.241-0.844,0.389-1.288,0.444c-0.14,0.037-0.297,0.065-0.473,0.111  c-1.261,0.194-2.475,0.77-3.577,1.418c0,0.019-0.01,0.019-0.01,0.019c-0.213,0.12-0.426,0.269-0.63,0.445  c-0.158,0.11-0.297,0.231-0.454,0.38c-0.093,0.074-0.186,0.147-0.287,0.25c-0.13,0.12-0.26,0.25-0.381,0.38  c-0.129,0.148-0.25,0.297-0.37,0.463c-0.167,0.158-0.306,0.381-0.427,0.575c-0.12,0.167-0.222,0.343-0.306,0.51  c-0.111,0.176-0.213,0.37-0.314,0.574c-0.26,0.538-0.51,0.964-0.798,1.288c-0.602,0.853-1.807,1.084-2.752,1.261  c-0.427,0.056-0.853,0.13-1.279,0.204h-0.12c-0.027,0.019-0.074,0.027-0.102,0.027c-1.094,0.157-2.225,0.269-3.281,0.574  c-2.146,0.464-4.3,1.075-6.005,2.559c-0.121,0.11-0.227,0.222-0.333,0.361c-0.037,0.037-0.07,0.074-0.098,0.13  c-0.116,0.129-0.199,0.25-0.273,0.389c-0.556,0.899-0.653,2.002-0.282,2.993c0.236,0.807,0.806,1.595,1.367,2.178l0,0  c1.084,2.188,2.002,3.309,2.952,5.44c0.421,0.945,0.889,1.872,1.432,2.743c0.199,0.324,0.398,0.64,0.598,0.964  c0.426,0.667,1.098,1.408,0.996,2.261H34.533c0.046-0.861,0.273-1.807,0.356-2.483c0.273-2.363,0.556-4.727,0.834-7.09  c-0.157-2.632-0.741-5.254-2.136-7.479c-0.413-0.621-0.867-1.278-1.427-1.742c-0.106-0.102-0.204-0.204-0.311-0.287  c-0.093-0.084-0.19-0.176-0.287-0.25c-0.009-0.01-0.009-0.01-0.023-0.01c-0.843-0.658-1.761-1.168-2.762-1.52  c-0.097-0.037-0.19-0.074-0.273-0.103c-2.094-0.593-4.313-0.824-6.431-1.315c-0.046-0.019-0.121-0.047-0.167-0.056  c-0.5-0.139-0.978-0.324-1.464-0.51v-0.009c-0.273-0.111-0.561-0.241-0.797-0.399c-0.074-0.046-0.144-0.083-0.213-0.12  c-0.098-0.064-0.181-0.13-0.25-0.186c-0.097-0.064-0.181-0.139-0.264-0.203c-0.181-0.158-0.333-0.315-0.491-0.491  c-0.139-0.186-0.25-0.39-0.343-0.594c-0.083-0.213-0.158-0.426-0.176-0.648c-0.028-0.186-0.028-0.353-0.014-0.537  c0.06-1.104,0.181-2.438,0.783-3.393c0.014,0,0.014-0.019,0.014-0.019c0.204-0.343,0.491-0.676,0.825-0.898  c0.107-0.074,0.199-0.14,0.32-0.186c0.121-0.083,0.26-0.148,0.403-0.194c0.417-0.167,0.894-0.241,1.32-0.287  c0.051,0,0.083-0.019,0.135-0.019c0.561-0.047,1.107-0.037,1.654-0.019c0.061-0.019,0.107-0.019,0.158-0.019  c0.167-0.01,0.32-0.01,0.486,0.019c0.737,0.111,1.441,0.593,1.807,1.288c1.274,1.854,5.171,5.18,7.4,3.104l0.009-0.01  c0.129-0.13,0.227-0.269,0.333-0.417c0.356-0.648,0.44-1.344,0.394-2.085v-0.009c-0.06-0.724-0.227-1.399-0.394-2.095  c0-0.019,0-0.019,0-0.019c-0.167-0.64-0.366-1.279-0.593-1.899c-0.06-0.204-0.134-0.408-0.204-0.621  c-0.538-1.576-1.015-3.133-1.464-4.727v-0.01c-0.38-1.26-0.797-2.566-1.325-3.753V52.69c-0.19-0.454-0.413-0.913-0.677-1.335  c-0.296-0.519-0.644-1.052-1.061-1.473c-0.083-0.097-0.167-0.199-0.273-0.283c-0.25-0.259-0.51-0.496-0.811-0.681  c-1.293-0.931-2.521-0.885-3.943-0.853c-0.728,0.019-1.84-0.296-2.475-0.677c-2.266-1.362-4.295-3.165-6.311-4.884  c-1.761-1.209-3.786-1.891-5.885-2.001c-0.463,0.023-0.894-0.199-1.13-0.593c-0.121-0.25-0.098-0.561-0.07-0.82  c0.009-0.134,0.033-0.269,0.07-0.408c0.319-1.32,1.214-2.562,2.062-3.577c0.653-0.839,1.737-2.127,2.868-2.164  c0.037-0.014,0.083-0.014,0.121-0.014c0.023,0.014,0.046,0.014,0.055,0.014c0.088,0.014,0.195,0.037,0.278,0.074h0.009  c0.06,0.023,0.12,0.074,0.181,0.111c0.069,0.051,0.13,0.102,0.19,0.148c0.06,0.037,0.097,0.074,0.13,0.125  c0.621,0.653,0.931,1.557,1.348,2.349c0.45,0.88,0.95,1.733,1.534,2.525c1.381,1.918,3.753,4.221,6.279,3.216  c0.311-0.097,0.607-0.246,0.866-0.431c0.121-0.06,0.241-0.148,0.334-0.245c0.083-0.065,0.167-0.139,0.241-0.213  c0.037-0.037,0.056-0.06,0.083-0.097c0.083-0.074,0.167-0.176,0.236-0.273c0.06-0.074,0.121-0.148,0.167-0.236  c0.069-0.111,0.144-0.232,0.204-0.357c0.046-0.111,0.097-0.213,0.144-0.333c0.463-1.168,0.255-2.502-0.208-3.651  c0.148-1.557-0.176-3.244-0.746-4.355c-0.593-1.159-1.524-1.706-2.479-2.577c-2.608-2.391-1.543-3.711-0.76-5.954  c1.103-0.7,2.373-1.182,3.489-1.441c0.454-0.125,0.857-0.236,1.251-0.325c0.167-0.023,0.333-0.06,0.5-0.074  c5.408-1.029,5.704,6.385,5.834,10.171c0.097,2.845,0.097,5.718,1.061,8.428c0.514,1.409,1.372,3.068,2.942,3.341h0.009  c0.834,0.098,2.229-0.185,3.299-2.761v-0.111c0.7-2.201,1.274-4.467,1.733-6.756c0.129-0.385,0.278-0.792,0.44-1.232  c0.422-0.969,0.964-1.881,1.742-2.984c0.913-1.293,1.293-2.41,1.122-3.948c-0.288-2.576-1.868-5-3.994-6.687  c-0.58-0.88-1.33-1.664-2.326-2.298c-0.023-0.014-0.051-0.037-0.061-0.037c-0.213-0.139-0.44-0.273-0.667-0.398  c-1.107-0.602-2.321-0.978-3.596-1.075c-0.63-0.111-1.075-0.171-1.372-0.283c-0.009-0.014-0.009-0.014-0.023-0.014  c-0.009-0.014-0.023-0.014-0.023-0.023c-0.394-0.199-0.5-0.547-0.561-1.265c-0.037-2.785,1.177-5.926,3.406-7.585  c1.038-0.764,1.955-0.273,3.095,0.028c1.409,0.371,2.859,0.765,4.184,1.409c0.45,0.171,0.927,0.445,1.334,0.742  c0.139,0.088,0.283,0.199,0.426,0.31c0,0.014,0.009,0.023,0.023,0.014c1.07,0.875,1.654,1.956,1.464,3.341v0.171  c0,2.711,0.158,5.63,1.205,8.155c0.394,0.955,1.033,2.118,2.025,2.525c0.023,0.009,0.06,0.023,0.083,0.037  c1.844,0.519,3.823-0.125,5.037-1.673c1.153-1.251,1.83-2.919,1.904-4.652c0.074-1.821-0.927-3.267-1.07-5.022  c-0.319-4.347,5.5-1.043,7.057,0.037c0.019,0,0.019,0,0.019,0c0.167,0.125,0.353,0.223,0.51,0.348c0.01,0,0.01,0,0.01,0  c0.167,0.111,0.315,0.208,0.481,0.333h0.01c0.139,0.098,0.287,0.199,0.417,0.297c0.009,0,0.009,0,0.009,0  c0.13,0.097,0.27,0.185,0.38,0.296h0.019c0.121,0.097,0.251,0.186,0.371,0.283c0.009,0.009,0.019,0.023,0.027,0.028  c0.362,1.177,0.649,2.345,0.325,3.591c-0.14,0.496-0.334,0.969-0.538,1.441c-0.306,0.255-0.603,0.519-0.88,0.806  c-0.982,1.015-1.715,2.229-2.373,3.48c-1.26,2.4-2.335,4.837-4.578,6.422c-1.371,0.978-2.993,1.348-4.388,2.261  c-1.057,0.695-1.965,1.608-2.688,2.665c-1.001,1.446-1.751,3.179-2.076,4.935l-0.176,0.496c-0.811,2.488-2.358,4.638-4.42,6.163  c-1.2,1.015-2.632,2.275-2.966,3.934c-0.296,1.534,0.431,3.044,0.658,4.527c0.042,0.371,0.144,0.719,0.278,1.052  c0.181,1.325,0.538,2.642,0.941,3.865c0.343,1.047,0.908,2.752,2.326,2.956c2.002,0.287,3.1-2.345,3.758-3.521  c0.875-1.585,1.802-2.558,3.313-3.684c0.463-0.348,0.876-0.682,1.228-1.07c1.404-1.001,2.28-2.155,2.196-4.125  c-0.106-2.252-1.403-5.236,0.19-7.191c0.871-1.052,2.076-1.793,3.336-2.224c0.982-0.333,2.846-0.917,3.8-0.186  c0.046,0.037,0.083,0.098,0.102,0.158c0.019,0.014,0.019,0.014,0.019,0.028c0.38,0.644-0.398,1.979-0.537,2.609  c-0.176,0.755-0.26,1.547-0.083,2.312c0,0.014,0.009,0.028,0.009,0.051c0.037,0.102,0.064,0.213,0.093,0.296  c0.861,2.066,3.262,1.673,4.828,0.83c1.742-0.936,3.104-2.46,3.901-4.319c1.631-3.836,1.835-8.971,0.621-12.965  c-0.102-0.413-0.26-0.792-0.343-1.2c-0.297-0.955-0.38-2.104-0.139-3.072c0.519-2.882,3.567-2.933,5.782-2.511  c2.4,0.436,4.838,1.385,6.756,2.965c0.158,0.811,0.464,1.529,0.788,2.285c-0.065,2.664-1.307,4.508-3.271,6.635  c-0.473,0.514-0.881,1.214-1.205,1.983c-0.056,0.083-0.111,0.162-0.176,0.25c0,0.014,0,0.028,0,0.028  c-0.111,0.148-0.204,0.306-0.278,0.482c-0.102,0.158-0.186,0.333-0.269,0.505c0,0.014,0,0.014-0.009,0.023  c-1.001,1.983-1.789,3.985-3.077,5.82c-0.797,1.149-2.048,2.474-2.048,3.934c0,0.445,0.12,0.89,0.407,1.362  c0.093,0.125,0.177,0.236,0.278,0.333c0.102,0.125,0.213,0.222,0.334,0.311c0.102,0.106,0.231,0.185,0.38,0.259  c1.057,0.607,2.354,0.681,3.53,0.579c0.028,0,0.074-0.014,0.103-0.014c0.037,0.014,0.056,0,0.093-0.009  c1.557-0.176,3.086-0.644,4.401-1.562c0.121-0.097,0.231-0.186,0.334-0.269c0.111-0.102,0.204-0.185,0.306-0.296  c1.381-1.437,1.909-3.799,3.846-4.694c0.454-0.171,0.89-0.222,1.362-0.097c0.028,0,0.056,0.014,0.065,0.014  c0.306,0.074,0.621,0.186,0.908,0.343c0.806,0.384,1.565,0.94,2.242,1.524c0.037,0.023,0.065,0.051,0.093,0.074  c0.065,0.061,0.139,0.121,0.223,0.2c0.037,0.037,0.083,0.074,0.12,0.134c0.01,0,0.019,0.014,0.037,0.028  c0.028,0.032,0.065,0.06,0.093,0.106c0.046,0.037,0.102,0.088,0.139,0.139c0.065,0.074,0.111,0.134,0.167,0.208  c0.186,0.236,0.343,0.482,0.464,0.741c0.083,0.148,0.148,0.287,0.194,0.449C92.694,46.319,92.731,46.667,92.685,47.014z"/></svg>